<?xml version="1.0" encoding="UTF-8"?>
<svg xmlns="http://www.w3.org/2000/svg" version="1.1" viewBox="0 0 513.7 141.8">
  <defs>
    <style>
      .cls-1 {
        fill: #e31e30;
      }

      .cls-2 {
        fill: #fed401;
      }

      .cls-3 {
        fill: #3c74ba;
      }

      .cls-4 {
        fill: #fed500;
      }
    </style>
  </defs>
  <!-- Generator: Adobe Illustrator 28.7.1, SVG Export Plug-In . SVG Version: 1.2.0 Build 142)  -->
  <g>
    <g id="Layer_1">
      <g>
        <path class="cls-3" d="M190.9,11.5v11.6h-12.9v-11.6h12.9ZM190.8,30.4v63.5h-12.8V30.4h12.8Z"/>
        <path class="cls-3" d="M278.5,11.5v14.2h-41.6c-7.3,0-10.6,5.2-10.6,10.8s2.5,9.6,12,9.6h19c22.1,0,27.3,12.3,27.3,23.9s-7.3,23.8-25.9,23.8h-45.3v-14.2h45.7c7.7,0,11.2-4.2,11.2-10.1s-2.8-10.1-12.8-10.1h-18.9c-21.7,0-26.7-12.2-26.7-23.5s7.2-24.6,25.3-24.6h41.2Z"/>
        <path class="cls-3" d="M321.6,11.5v54.3c0,7.8,3.9,14,16.6,14h32.9v14.2h-33.7c-21.5,0-30-11.8-30-28V11.5h14.2Z"/>
        <path class="cls-3" d="M42.1,59.4c-4.4-4.5-4.5-11.7-.2-16.2l29.8-31.7h-19.8s-30,32.2-30,32.2c-.9.9-1.5,1.9-2,3V11.5H4.1v82.4h15.9v-37.2c.5,1.2,1.3,2.2,2.2,3.2l33.1,34h20.6c0,0-33.7-34.5-33.7-34.5Z"/>
        <path class="cls-3" d="M100.8,34.6c2.3-2.3,5-4.1,8.1-5.4,3.1-1.3,6.4-2,9.9-2h28.3c.3,0,.5,0,.8,0h7.4v-15.7h-16.6s-19.9,0-19.9,0c-5.9,0-11.4,1.1-16.4,3.4-5.1,2.3-9.4,5.3-13.1,9.1-3.7,3.8-6.6,8.2-8.7,13.2-2.1,5-3.1,10.2-3.1,15.7s1.1,11,3.2,16c2.2,5,5.1,9.3,8.8,13.1,3.7,3.7,8.1,6.7,13.1,8.8,5,2.2,10.4,3.2,16.1,3.2h28.3c2.2,0,4.1-.8,5.6-2.3,1.5-1.5,2.3-3.4,2.3-5.6v-20.2h0v-15.7h-15.8v15.7h0v12.3h-20.4c-3.5,0-6.8-.7-9.9-2-3.1-1.3-5.8-3.2-8.1-5.5-2.3-2.3-4.1-5-5.5-8.1-1.3-3.1-2-6.4-2-9.9s.7-6.8,2-9.9c1.3-3.1,3.2-5.8,5.5-8.1Z"/>
        <path class="cls-1" d="M436.1,93.9h6.7c-1.4-6.2-4.6-13.2-8.7-18.5-6.6-8.6-15.6-14.5-25.6-20.1-5.4-3-9.3-6.8-12.1-10.3-1.4-1.9-2.4-3.9-2.8-5.9-.3-1.5-.4-3.2-.2-4.9.6-4.1,2.4-7.3,5.6-9.8,1.8-1.4,3.8-2.3,5.8-2.8,1.5-.3,3.2-.4,5-.2,4,.5,7.3,2.3,9.8,5.5.7,1,1.4,2.5,2.1,4.6h18.7l-.8-3.7c-.9-4.2-2.8-8.2-5.8-11.8-5.6-7.2-12.9-11.3-21.8-12.4-3.9-.5-7.7-.3-11.2.4-4.7,1-9,3.1-13.1,6.2-7.2,5.5-11.3,12.8-12.4,21.7-.4,3.9-.3,7.5.5,11.1,1,4.7,3.1,9.1,6.2,13.2,5.2,6.6,12.5,12.2,21.9,16.7,6.7,3.2,11.8,8.2,16,13.6,1.9,2.4,3.3,4.9,4.2,7.5h12.1"/>
        <path class="cls-4" d="M500.4,31.8c-1.1-8.9-5.3-16.1-12.4-21.7-4-3.1-8.4-5.2-13.1-6.2-3.5-.8-7.3-.9-11.2-.4-9,1.1-16.2,5.3-21.8,12.4-2.9,3.7-4.9,7.6-5.8,11.8l-.8,3.7h18.7c.7-2.1,1.4-3.6,2.1-4.6,2.5-3.2,5.7-5,9.8-5.5,1.8-.2,3.4-.2,5,.2,2.1.4,4,1.4,5.8,2.8,3.2,2.5,5,5.7,5.6,9.8.2,1.7,0,3.3-.2,4.9-.4,2.1-1.4,4-2.8,5.9-2.8,3.5-6.6,7.3-12.1,10.3-10.2,5.7-19,11.6-25.6,20.1-4.2,5.3-6.9,12.4-8.3,18.5h6.2s12.1,0,12.1,0c.9-2.6,2.3-5.1,4.2-7.5,4.1-5.4,9.1-10.6,16-13.6,9.3-4.1,16.7-10.1,21.8-16.7,3.1-4,5.2-8.4,6.2-13.2.8-3.5.9-7.2.5-11.1"/>
        <path class="cls-2" d="M453.7,120.3c0-8.3-7-15-15.4-14.5-7.2.5-13.1,6.3-13.6,13.6-.5,8.4,6.2,15.4,14.5,15.4s14.5-6.5,14.5-14.5"/>
        <g>
          <path class="cls-3" d="M4,112.9h13.6v3.1H7.5v6.1h8.2v3H7.5v6.3h10.1v3.1H4v-21.6Z"/>
          <path class="cls-3" d="M21.9,134.5v-15.8h3.4v1s2.2-1.3,4.1-1.3,3.1.5,4,1.5c0,0,2.9-1.5,5.4-1.5,4.3,0,5.5,2.3,5.5,7.7v8.4h-3.4v-8.4c0-3.2-.4-4.7-2.7-4.7s-3.6.8-3.6.8c.1.3.3,2.5.3,4v8.2h-3.4v-8.1c0-3.5-.3-4.9-2.7-4.9s-3.4.8-3.4.8v12.2h-3.4Z"/>
          <path class="cls-3" d="M49.1,118.7h3.4v1s2.2-1.3,4.1-1.3c4.1,0,6,2.3,6,8.1s-2.2,8.4-7.1,8.4-2.8-.3-3-.3v6.7h-3.4v-22.5ZM52.5,122.3v9.3c.2,0,1.7.3,2.8.3,2.9,0,3.8-1.5,3.8-5.4s-1.2-5-3.1-5-3.4.9-3.4.9Z"/>
          <path class="cls-3" d="M78.5,130.8c0,.9.5,1.3,1.4,1.5v2.6c-2,0-3.1-.3-4.3-1.2,0,0-2.5,1.2-5.1,1.2s-4.7-1.7-4.7-5,1.8-4.5,5.2-4.8l4.1-.3v-1.1c0-1.7-.8-2.3-2.3-2.3s-5.9.3-5.9.3v-2.4c-.1,0,3.3-.8,6.2-.8s5.4,1.6,5.4,5.2v7.2ZM71.4,127.5c-1.5.1-2.2.8-2.2,2.2s.6,2.3,1.9,2.3,3.9-.7,3.9-.7v-4.2l-3.7.3Z"/>
          <path class="cls-3" d="M87.7,121.7v6.9c0,2.4,0,3.2,1.7,3.2s2.6,0,2.6,0l.2,2.7s-2.1.4-3.2.4c-3.6,0-4.7-1.3-4.7-5.9v-7.3h-2v-2.9h2v-4.6h3.4v4.6h4.3v2.9h-4.3Z"/>
          <path class="cls-3" d="M95.7,134.5v-22.3h3.4v7.4s2.3-1.2,4.3-1.2c4.4,0,5.5,2.5,5.5,7.7v8.4h-3.4v-8.4c0-3.2-.4-4.7-2.8-4.7s-3.5.7-3.5.7v12.4h-3.4Z"/>
          <path class="cls-3" d="M115.5,118.7l3.3,12.8h.9l3.3-12.8h3.4l-6,22.5h-3.4l1.9-6.8h-2.7l-4.1-15.8h3.4Z"/>
          <path class="cls-3" d="M129.3,124.4h9.4v3.1h-9.4v-3.1Z"/>
          <path class="cls-3" d="M157,126.4c0,6.5-2,8.4-7.7,8.4s-5.8-.4-5.8-.4v-22.3h3.4v7.2s2.2-.9,3.9-.9c4.3,0,6.1,2.1,6.1,8ZM153.5,126.4c0-3.6-.9-4.9-3-4.9s-3.5.6-3.5.6v9.6s1.7.1,2.4.1c3.5,0,4.2-1.5,4.2-5.4Z"/>
          <path class="cls-3" d="M172.9,130.8c0,.9.5,1.3,1.4,1.5v2.6c-2,0-3.1-.3-4.3-1.2,0,0-2.5,1.2-5.1,1.2s-4.7-1.7-4.7-5,1.8-4.5,5.2-4.8l4.1-.3v-1.1c0-1.7-.8-2.3-2.3-2.3s-5.9.3-5.9.3v-2.4c-.1,0,3.3-.8,6.2-.8s5.4,1.6,5.4,5.2v7.2ZM165.9,127.5c-1.5.1-2.2.8-2.2,2.2s.6,2.3,1.9,2.3,3.9-.7,3.9-.7v-4.2l-3.7.3Z"/>
          <path class="cls-3" d="M189,122s-3.7-.5-5.6-.5-2.7.4-2.7,1.7.7,1.3,3.8,1.9c3.8.7,5.1,1.6,5.1,4.8s-2.3,5-6.2,5-5.8-.7-5.8-.7v-2.9c.1,0,3.9.5,5.5.5s3.2-.5,3.2-1.9-.5-1.5-3.7-2c-3.5-.6-5.2-1.3-5.2-4.7s2.8-4.9,5.9-4.9,5.9.7,5.9.7v2.9Z"/>
          <path class="cls-3" d="M205.7,131.6v2.6c0,0-3.5.7-6.3.7-4.7,0-6.6-2.5-6.6-8.1s2.5-8.4,6.8-8.4,6.6,2.3,6.6,7.2l-.2,2.5h-9.8c0,2.5,1,3.8,3.6,3.8s5.8-.3,5.8-.3ZM203,125.4c0-3.2-.9-4.2-3.2-4.2s-3.4,1.2-3.4,4.2h6.7Z"/>
          <path class="cls-3" d="M223.3,134.5h-3.4v-.8s-2.3,1.2-4.2,1.2c-4,0-6-2.1-6-8.2s2-8.3,6.6-8.3,3.4.4,3.6.4v-6.6h3.4v22.3ZM219.9,131v-9.3c-.2,0-2-.3-3.3-.3-2.3,0-3.3,1.7-3.3,5.3s1.1,5.1,3,5.1,3.7-.8,3.7-.8Z"/>
          <path class="cls-3" d="M249.3,126.5c0,5.2-1.6,8.3-7,8.3s-7-3.1-7-8.3,1.8-8.1,7-8.1,7,3,7,8.1ZM245.8,126.5c0-3.7-.8-5.2-3.6-5.2s-3.6,1.6-3.6,5.2.6,5.4,3.6,5.4,3.6-1.8,3.6-5.4Z"/>
          <path class="cls-3" d="M266.5,118.7v15.8h-3.4v-1s-2.3,1.3-4.3,1.3c-4.5,0-5.5-2.3-5.5-7.9v-8.2h3.4v8.3c0,3.5.2,4.8,2.7,4.8s3.6-.8,3.6-.8v-12.2h3.4Z"/>
          <path class="cls-3" d="M275.6,121.7v6.9c0,2.4,0,3.2,1.7,3.2s2.6,0,2.6,0l.2,2.7s-2.1.4-3.2.4c-3.6,0-4.7-1.3-4.7-5.9v-7.3h-2v-2.9h2v-4.6h3.4v4.6h4.3v2.9h-4.3Z"/>
          <path class="cls-3" d="M294.1,119v2.7c-.1,0-2.6-.3-3.8-.3-3.3,0-4,1.3-4,4.9s.7,5.4,4.1,5.4,3.7-.3,3.7-.3v2.7c0,0-3.1.6-4.7.6-4.9,0-6.5-2.4-6.5-8.4s1.9-8,6.6-8,4.7.6,4.7.6Z"/>
          <path class="cls-3" d="M311.4,126.5c0,5.2-1.6,8.3-7,8.3s-7-3.1-7-8.3,1.8-8.1,7-8.1,7,3,7,8.1ZM307.9,126.5c0-3.7-.8-5.2-3.6-5.2s-3.6,1.6-3.6,5.2.6,5.4,3.6,5.4,3.6-1.8,3.6-5.4Z"/>
          <path class="cls-3" d="M315.6,134.5v-15.8h3.4v1s2.2-1.3,4.1-1.3,3.1.5,4,1.5c0,0,2.9-1.5,5.4-1.5,4.3,0,5.5,2.3,5.5,7.7v8.4h-3.4v-8.4c0-3.2-.4-4.7-2.7-4.7s-3.6.8-3.6.8c.1.3.3,2.5.3,4v8.2h-3.4v-8.1c0-3.5-.3-4.9-2.7-4.9s-3.4.8-3.4.8v12.2h-3.4Z"/>
          <path class="cls-3" d="M355,131.6v2.6c0,0-3.5.7-6.3.7-4.7,0-6.6-2.5-6.6-8.1s2.5-8.4,6.8-8.4,6.6,2.3,6.6,7.2l-.2,2.5h-9.8c0,2.5,1,3.8,3.6,3.8s5.8-.3,5.8-.3ZM352.2,125.4c0-3.2-.9-4.2-3.2-4.2s-3.4,1.2-3.4,4.2h6.7Z"/>
          <path class="cls-3" d="M370.6,122s-3.7-.5-5.6-.5-2.7.4-2.7,1.7.7,1.3,3.8,1.9c3.8.7,5.1,1.6,5.1,4.8s-2.3,5-6.2,5-5.8-.7-5.8-.7v-2.9c.1,0,3.9.5,5.5.5s3.2-.5,3.2-1.9-.5-1.5-3.7-2c-3.5-.6-5.2-1.3-5.2-4.7s2.8-4.9,5.9-4.9,5.9.7,5.9.7v2.9Z"/>
        </g>
        <g>
          <path class="cls-3" d="M502.7,9.9v2.1h-1v-5.9h2.2c1.3,0,2,.6,2,1.9s-.3,1.4-1,1.7l1,2.3h-1.1l-.9-2.1h-1.4ZM504,6.9h-1.3v2.1h1.3c.7,0,1-.5,1-1.1s-.3-1.1-1-1.1Z"/>
          <path class="cls-3" d="M503.9,14.8c-3.2,0-5.8-2.6-5.8-5.8s2.6-5.8,5.8-5.8,5.8,2.6,5.8,5.8-2.6,5.8-5.8,5.8ZM503.9,4c-2.8,0-5,2.2-5,5s2.2,5,5,5,5-2.2,5-5-2.2-5-5-5Z"/>
        </g>
      </g>
    </g>
  </g>
</svg>