<?xml version="1.0" encoding="utf-8"?>
<!-- Designed by Vexels.com - 2017 All Rights Reserved - https://vexels.com/terms-and-conditions/  -->

<svg version="1.1" id="Layer_1" xmlns="http://www.w3.org/2000/svg" xmlns:xlink="http://www.w3.org/1999/xlink" x="0px" y="0px"
	 width="1200px" height="1200px" viewBox="0 0 1200 1200" enable-background="new 0 0 1200 1200" xml:space="preserve">
<g>
	<g>
		<path fill="#EB5E29" d="M187.936,534.725l-24.349-43.43c0,0,38.497-17.768,77.652-7.24c0,0,1.317,23.69,21.056,33.556
			c0,0,19.743,11.191,38.497,0c0,0,29.617,32.901,31.593,71.734h-48.698c0,0-0.658-30.93-35.536-51.332
			C248.152,538.013,222.15,520.254,187.936,534.725z"/>
		<path fill="#E41523" d="M310.658,482.067c0,15.84-12.839,28.683-28.683,28.683c-15.839,0-28.683-12.844-28.683-28.683
			c0-15.839,12.844-28.683,28.683-28.683C297.819,453.384,310.658,466.228,310.658,482.067z"/>
		<path fill="#F9B21A" d="M170.216,656.534l-26.273,42.293c0,0-34.149-25.128-43.838-64.503c0,0,20.109-12.585,19.214-34.64
			c0,0,0.267-22.692-18.59-33.711c0,0,14.51-41.82,47.553-62.299l23.519,42.637c0,0-26.768,15.512-27.784,55.903
			C144.016,602.215,141.016,633.567,170.216,656.534z"/>
		<path fill="#EB5E29" d="M64.836,574.496c13.873-7.644,31.318-2.6,38.97,11.269c7.649,13.868,2.608,31.317-11.264,38.97
			c-13.872,7.653-31.322,2.608-38.97-11.269C45.923,599.598,50.963,582.148,64.836,574.496z"/>
		<path fill="#E41523" d="M283.727,610.169l49.778,1.033c0,0-4.196,42.19-33.121,70.598c0,0-21.091-10.872-39.603,1.145
			c0,0-19.653,11.337-19.52,33.177c0,0-43.373,8.849-77.842-9.133l24.689-41.975c0,0,26.992,15.116,62.256-4.605
			C250.365,660.408,278.858,647.005,283.727,610.169z"/>
		<path fill="#F9B21A" d="M266.901,742.653c-13.653-8.032-18.215-25.61-10.184-39.272c8.031-13.653,25.61-18.215,39.267-10.184
			c13.658,8.031,18.216,25.61,10.184,39.271C298.137,746.122,280.558,750.684,266.901,742.653z"/>
	</g>
	<g>
		<path d="M801.752,651.214c0,0-0.685,17.027,16.347,17.027c0,0,15.216-0.904,14.759-16.804v-52.683c0,0,0.457-29.742,23.841-28.838
			c0,0,23.617-0.224,22.709,28.158v53.82c0,0-0.908,15.667,15.443,15.891c0,0,15.211-0.223,15.211-15.891v-54.956
			c0,0,1.365-55.86-53.364-55.404c0,0-54.268-3.633-54.495,56.093L801.752,651.214z"/>
		<path d="M1041.686,558.518c0,0-0.685-17.028,16.347-17.028c0,0,15.216,0.913,14.759,16.804v52.684c0,0,0.457,29.742,23.841,28.838
			c0,0,23.617,0.224,22.709-28.158v-53.82c0,0-0.908-15.667,15.439-15.891c0,0,15.215,0.223,15.215,15.891v54.956
			c0,0,1.365,55.86-53.364,55.404c0,0-54.268,3.633-54.495-56.084L1041.686,558.518z"/>
		<path d="M659.734,558.518c0,0-0.684-17.028,16.347-17.028c0,0,15.216,0.913,14.759,16.804v52.684c0,0,0.456,29.742,23.845,28.838
			c0,0,23.613,0.224,22.705-28.158v-53.82c0,0-0.908-15.667,15.443-15.891c0,0,15.211,0.223,15.211,15.891v54.956
			c0,0,1.364,55.86-53.36,55.404c0,0-54.272,3.633-54.5-56.084L659.734,558.518z"/>
		<path d="M380.184,558.518c0,0-0.68-17.028,16.351-17.028c0,0,15.211,0.913,14.755,16.804v52.684c0,0,0.456,29.742,23.845,28.838
			c0,0,23.613,0.224,22.709-28.158v-53.82c0,0-0.913-15.667,15.439-15.891c0,0,15.216,0.223,15.216,15.891v54.956
			c0,0,1.36,55.86-53.364,55.404c0,0-54.272,3.633-54.5-56.084L380.184,558.518z"/>
		<path d="M624.521,572.378c-12.715-31.791-44.282-30.654-44.282-30.654c-16.347-0.456-27.25,7.713-27.25,7.713v-38.368
			c0.228-19.076-16.119-18.396-16.119-18.396c-16.58,0-15.443,17.707-15.443,17.707l0.004,99.238
			c-0.456,25.205,11.583,39.96,11.583,39.96c15.667,22.933,51.543,17.94,51.543,17.94c45.19-6.586,45.414-53.587,45.414-53.587
			C631.331,587.813,624.521,572.378,624.521,572.378z M593.634,635.047c0,0-8.63,12.491-29.747,5.225
			c0,0-16.124-3.865-13.399-43.378c0,0-2.268-28.838,24.982-29.742c0,0,22.704-1.592,26.338,29.062
			C601.808,596.215,606.125,619.148,593.634,635.047z"/>
		<path d="M950.592,539.769v-32.144c0,0,1.493-14.574,15.693-14.574c0,0,14.953-0.37,15.697,16.072v30.646h14.949
			c0,0,10.838,1.868,10.468,11.208c0,0,2.613,9.719-11.587,11.217h-13.081v65.398c0,0-3.74,21.306,21.302,14.204
			c0,0,13.455-4.114,13.825,9.34c0,0,2.246,11.217-17.191,15.323c0,0-23.914,4.864-38.118-3.736c0,0-12.331-5.983-11.587-30.276
			v-69.513h-8.97c0,0-10.089-2.238-9.715-12.327c0,0,1.119-10.089,11.212-10.468L950.592,539.769z"/>
	</g>
</g>
</svg>
